<mxfile host="app.diagrams.net" agent="Mozilla/5.0 (X11; Linux x86_64; rv:133.0) Gecko/20100101 Firefox/133.0" version="25.0.3">
  <diagram name="PÃ¡gina-1" id="44PWCCi4qDNbjLR8MyuV">
    <mxGraphModel dx="1707" dy="1581" grid="1" gridSize="10" guides="1" tooltips="1" connect="1" arrows="1" fold="1" page="1" pageScale="1" pageWidth="827" pageHeight="1169" math="0" shadow="0">
      <root>
        <mxCell id="0" />
        <mxCell id="1" parent="0" />
        <mxCell id="ElCCOD3k_z0msa3gvorV-9" value="&lt;p style=&quot;margin:0px;margin-top:4px;text-align:center;&quot;&gt;&lt;i&gt;&amp;lt;&amp;lt;abstract&amp;gt;&amp;gt;&lt;/i&gt;&lt;br&gt;&lt;b&gt;&lt;i&gt;Pessoa&lt;/i&gt;&lt;/b&gt;&lt;/p&gt;&lt;hr size=&quot;1&quot; style=&quot;border-style:solid;&quot;&gt;&lt;p style=&quot;margin:0px;margin-left:4px;&quot;&gt;- nome: String&lt;br&gt;- endereco: String&lt;/p&gt;&lt;p style=&quot;margin:0px;margin-left:4px;&quot;&gt;- telefone: String&lt;/p&gt;" style="verticalAlign=top;align=left;overflow=fill;html=1;strokeColor=default;" parent="1" vertex="1">
          <mxGeometry x="-30" y="-160" width="190" height="100" as="geometry" />
        </mxCell>
        <mxCell id="ElCCOD3k_z0msa3gvorV-21" value="&lt;p style=&quot;margin:0px;margin-top:4px;text-align:center;&quot;&gt;&lt;b&gt;Parente&lt;/b&gt;&lt;/p&gt;&lt;hr size=&quot;1&quot; style=&quot;border-style:solid;&quot;&gt;&lt;p style=&quot;margin:0px;margin-left:4px;&quot;&gt;- parentesco: String&lt;br&gt;&lt;/p&gt;&lt;p style=&quot;margin:0px;margin-left:4px;&quot;&gt;&lt;br&gt;&lt;/p&gt;" style="verticalAlign=top;align=left;overflow=fill;html=1;whiteSpace=wrap;" parent="1" vertex="1">
          <mxGeometry x="-15" width="160" height="60" as="geometry" />
        </mxCell>
        <mxCell id="ElCCOD3k_z0msa3gvorV-24" value="&lt;p style=&quot;margin:0px;margin-top:4px;text-align:center;&quot;&gt;&lt;i&gt;&amp;lt;&amp;lt;Interface&amp;gt;&amp;gt;&lt;/i&gt;&lt;br&gt;&lt;b&gt;Conta&lt;/b&gt;&lt;/p&gt;&lt;hr size=&quot;1&quot; style=&quot;border-style:solid;&quot;&gt;&lt;p style=&quot;margin:0px;margin-left:4px;&quot;&gt;- idConta: int&lt;br&gt;&lt;/p&gt;&lt;p style=&quot;margin:0px;margin-left:4px;&quot;&gt;- listaFaturas: Fatura&lt;br&gt;- saldo: double&lt;br&gt;&lt;/p&gt;&lt;hr size=&quot;1&quot; style=&quot;border-style:solid;&quot;&gt;&lt;p style=&quot;margin:0px;margin-left:4px;&quot;&gt;+ getTipoConta(): String&lt;/p&gt;" style="verticalAlign=top;align=left;overflow=fill;html=1;whiteSpace=wrap;" parent="1" vertex="1">
          <mxGeometry x="560" y="10" width="190" height="120" as="geometry" />
        </mxCell>
        <mxCell id="ElCCOD3k_z0msa3gvorV-25" value="&lt;p style=&quot;margin:0px;margin-top:4px;text-align:center;&quot;&gt;&lt;b&gt;Cliente&lt;/b&gt;&lt;/p&gt;&lt;hr size=&quot;1&quot; style=&quot;border-style:solid;&quot;&gt;&lt;p style=&quot;margin:0px;margin-left:4px;&quot;&gt;- cpf: String&lt;/p&gt;&lt;p style=&quot;margin:0px;margin-left:4px;&quot;&gt;- senha: String&lt;/p&gt;&lt;p style=&quot;margin:0px;margin-left:4px;&quot;&gt;- listaParentes &amp;lt;list&amp;gt;: Parente&lt;/p&gt;&lt;p style=&quot;margin:0px;margin-left:4px;&quot;&gt;- listaAvaliacoes &amp;lt;list&amp;gt;: Avaliacao&lt;/p&gt;&lt;p style=&quot;margin:0px;margin-left:4px;&quot;&gt;- listaFaturas &amp;lt;list&amp;gt;: Fatura&lt;br&gt;&lt;/p&gt;&lt;p style=&quot;margin:0px;margin-left:4px;&quot;&gt;- notaTotal: double&lt;/p&gt;&lt;p style=&quot;margin:0px;margin-left:4px;&quot;&gt;- historicoCobranca &amp;lt;list&amp;gt;: String&lt;br&gt;&lt;/p&gt;&lt;hr size=&quot;1&quot; style=&quot;border-style:solid;&quot;&gt;&lt;p style=&quot;margin:0px;margin-left:4px;&quot;&gt;+ adicionarParente(Parente): void&lt;/p&gt;&lt;p style=&quot;margin:0px;margin-left:4px;&quot;&gt;+ retirarParente(String): void&lt;/p&gt;&lt;p style=&quot;margin:0px;margin-left:4px;&quot;&gt;+ getTipoConta(): String&lt;/p&gt;&lt;p style=&quot;margin:0px;margin-left:4px;&quot;&gt;+ verExtrato(): void&lt;/p&gt;&lt;p style=&quot;margin:0px;margin-left:4px;&quot;&gt;+ historicoEmprestimos(): String&lt;/p&gt;&lt;p style=&quot;margin:0px;margin-left:4px;&quot;&gt;+ pagarParcela(int): void&lt;/p&gt;&lt;p style=&quot;margin:0px;margin-left:4px;&quot;&gt;+ avaliarAgiota(idConta): void&lt;/p&gt;&lt;p style=&quot;margin:0px;margin-left:4px;&quot;&gt;+ verHistoricoCobranca(): String&lt;/p&gt;" style="verticalAlign=top;align=left;overflow=fill;html=1;whiteSpace=wrap;" parent="1" vertex="1">
          <mxGeometry x="240" y="40" width="200" height="270" as="geometry" />
        </mxCell>
        <mxCell id="ElCCOD3k_z0msa3gvorV-26" value="&lt;p style=&quot;margin:0px;margin-top:4px;text-align:center;&quot;&gt;&lt;b&gt;Agiota&lt;/b&gt;&lt;/p&gt;&lt;hr size=&quot;1&quot; style=&quot;border-style:solid;&quot;&gt;&lt;p style=&quot;margin:0px;margin-left:4px;&quot;&gt;- cpf: String&lt;/p&gt;&lt;p style=&quot;margin:0px;margin-left:4px;&quot;&gt;- nome: String&lt;br&gt;&lt;/p&gt;&lt;p style=&quot;margin:0px;margin-left:4px;&quot;&gt;- senha: String&lt;/p&gt;&lt;p style=&quot;margin:0px;margin-left:4px;&quot;&gt;- listaClientes &amp;lt;list&amp;gt;: Cliente&lt;/p&gt;&lt;p style=&quot;margin:0px;margin-left:4px;&quot;&gt;- descricao: String&lt;/p&gt;&lt;p style=&quot;margin:0px;margin-left:4px;&quot;&gt;- saldo: double&lt;/p&gt;&lt;p style=&quot;margin:0px;margin-left:4px;&quot;&gt;- juros: double&lt;/p&gt;&lt;p style=&quot;margin:0px;margin-left:4px;&quot;&gt;- aceitaParcelado: boolean&lt;/p&gt;&lt;p style=&quot;margin:0px;margin-left:4px;&quot;&gt;- maximoParcelas: int&lt;br&gt;&lt;/p&gt;&lt;p style=&quot;margin:0px;margin-left:4px;&quot;&gt;- listaAvaliacoes &amp;lt;list&amp;gt;: Avaliacao&lt;/p&gt;&lt;p style=&quot;margin:0px;margin-left:4px;&quot;&gt;- notaTotal: double&lt;br&gt;&lt;/p&gt;&lt;hr size=&quot;1&quot; style=&quot;border-style:solid;&quot;&gt;&lt;p style=&quot;margin:0px;margin-left:4px;&quot;&gt;+ getTipoConta(): String&lt;/p&gt;&lt;p style=&quot;margin:0px;margin-left:4px;&quot;&gt;+ verExtrato(): String&lt;/p&gt;&lt;p style=&quot;margin:0px;margin-left:4px;&quot;&gt;+ listarClientes(): String&lt;/p&gt;&lt;p style=&quot;margin:0px;margin-left:4px;&quot;&gt;+ avaliarCliente(idConta): void&lt;/p&gt;&lt;p style=&quot;margin:0px;margin-left:4px;&quot;&gt;+ relatarCobranca(int, String): void&lt;br&gt;&lt;/p&gt;" style="verticalAlign=top;align=left;overflow=fill;html=1;whiteSpace=wrap;" parent="1" vertex="1">
          <mxGeometry x="550" y="200" width="200" height="290" as="geometry" />
        </mxCell>
        <mxCell id="ElCCOD3k_z0msa3gvorV-27" value="&lt;p style=&quot;margin:0px;margin-top:4px;text-align:center;&quot;&gt;&lt;b&gt;Parcela&lt;/b&gt;&lt;/p&gt;&lt;hr size=&quot;1&quot; style=&quot;border-style:solid;&quot;&gt;&lt;p style=&quot;margin:0px;margin-left:4px;&quot;&gt;- idParcela: int&lt;/p&gt;&lt;p style=&quot;margin:0px;margin-left:4px;&quot;&gt;- valor: double&lt;/p&gt;&lt;p style=&quot;margin:0px;margin-left:4px;&quot;&gt;- dataVencimento: LocalDate&lt;/p&gt;&lt;p style=&quot;margin:0px;margin-left:4px;&quot;&gt;- dataPagamento: LocalDate&lt;br&gt;&lt;/p&gt;&lt;hr size=&quot;1&quot; style=&quot;border-style:solid;&quot;&gt;&lt;div&gt;+ pagarParcela()): void&lt;/div&gt;&lt;div&gt;+ visualizarParcela(): String&lt;br&gt;&lt;/div&gt;" style="verticalAlign=top;align=left;overflow=fill;html=1;whiteSpace=wrap;" parent="1" vertex="1">
          <mxGeometry x="560" y="-180" width="200" height="140" as="geometry" />
        </mxCell>
        <mxCell id="ElCCOD3k_z0msa3gvorV-28" value="&lt;p style=&quot;margin:0px;margin-top:4px;text-align:center;&quot;&gt;&lt;b&gt;Fatura&lt;/b&gt;&lt;/p&gt;&lt;hr size=&quot;1&quot; style=&quot;border-style:solid;&quot;&gt;&lt;p style=&quot;margin:0px;margin-left:4px;&quot;&gt;- idFatura: int&lt;/p&gt;&lt;p style=&quot;margin:0px;margin-left:4px;&quot;&gt;- listaParcelas &amp;lt;list&amp;gt;: Parcela&lt;/p&gt;&lt;p style=&quot;margin:0px;margin-left:4px;&quot;&gt;- quantidadeParcelas: int&lt;/p&gt;&lt;p style=&quot;margin:0px;margin-left:4px;&quot;&gt;- valorTotal: double&lt;/p&gt;&lt;p style=&quot;margin:0px;margin-left:4px;&quot;&gt;- idContaCliente: int&lt;/p&gt;&lt;p style=&quot;margin:0px;margin-left:4px;&quot;&gt;- idContaAgiota: int&lt;/p&gt;" style="verticalAlign=top;align=left;overflow=fill;html=1;whiteSpace=wrap;" parent="1" vertex="1">
          <mxGeometry x="240" y="-180" width="200" height="140" as="geometry" />
        </mxCell>
        <mxCell id="ElCCOD3k_z0msa3gvorV-29" value="&lt;p style=&quot;margin:0px;margin-top:4px;text-align:center;&quot;&gt;&lt;b&gt;Avaliacao&lt;/b&gt;&lt;/p&gt;&lt;hr size=&quot;1&quot; style=&quot;border-style:solid;&quot;&gt;&lt;p style=&quot;margin:0px;margin-left:4px;&quot;&gt;- descricao: String&lt;/p&gt;&lt;p style=&quot;margin:0px;margin-left:4px;&quot;&gt;- nota: int&lt;br&gt;&lt;/p&gt;" style="verticalAlign=top;align=left;overflow=fill;html=1;whiteSpace=wrap;" parent="1" vertex="1">
          <mxGeometry x="240" y="390" width="200" height="70" as="geometry" />
        </mxCell>
        <mxCell id="ElCCOD3k_z0msa3gvorV-30" value="&lt;p style=&quot;margin:0px;margin-top:4px;text-align:center;&quot;&gt;&lt;i&gt;&amp;lt;&amp;lt;control&amp;gt;&amp;gt;&lt;/i&gt;&lt;br&gt;&lt;b&gt;ControladorConta&lt;/b&gt;&lt;/p&gt;&lt;hr size=&quot;1&quot; style=&quot;border-style:solid;&quot;&gt;&lt;p style=&quot;margin:0px;margin-left:4px;&quot;&gt;+ login(): void&lt;/p&gt;&lt;p style=&quot;margin:0px;margin-left:4px;&quot;&gt;+ autenticarConta(String, String): Conta&lt;/p&gt;&lt;p style=&quot;margin:0px;margin-left:4px;&quot;&gt;+ redirecionarSistemaMenu(): void&lt;/p&gt;&lt;p style=&quot;margin:0px;margin-left:4px;&quot;&gt;+ cadastrarCliente(Cliente): void&lt;/p&gt;&lt;p style=&quot;margin:0px;margin-left:4px;&quot;&gt;+ cadastrarAgiota: void&lt;br&gt;&lt;/p&gt;" style="verticalAlign=top;align=left;overflow=fill;html=1;whiteSpace=wrap;" parent="1" vertex="1">
          <mxGeometry x="827" y="110" width="230" height="130" as="geometry" />
        </mxCell>
        <mxCell id="ElCCOD3k_z0msa3gvorV-31" value="&lt;p style=&quot;margin:0px;margin-top:4px;text-align:center;&quot;&gt;&lt;i&gt;&amp;lt;&amp;lt;control&amp;gt;&amp;gt;&lt;/i&gt;&lt;br&gt;&lt;b&gt;ControladorCliente&lt;/b&gt;&lt;/p&gt;&lt;hr size=&quot;1&quot; style=&quot;border-style:solid;&quot;&gt;&lt;p style=&quot;margin:0px;margin-left:4px;&quot;&gt;+ editarPerfil(Cliente): void&lt;/p&gt;&lt;p style=&quot;margin:0px;margin-left:4px;&quot;&gt;+ verExtrato(Cliente): void&lt;/p&gt;&lt;p style=&quot;margin:0px;margin-left:4px;&quot;&gt;+ simularEmprestimo(Cliente): void&lt;/p&gt;&lt;p style=&quot;margin:0px;margin-left:4px;&quot;&gt;+ realizarEmprestimo(Cliente): void&lt;/p&gt;&lt;p style=&quot;margin:0px;margin-left:4px;&quot;&gt;+ visualizarHistoricoEmprestimos(Cliente): void&lt;/p&gt;&lt;p style=&quot;margin:0px;margin-left:4px;&quot;&gt;+ pagarParcela(Cliente, int): void&lt;/p&gt;&lt;p style=&quot;margin:0px;margin-left:4px;&quot;&gt;+ listarAgiotas(): String&lt;br&gt;&lt;/p&gt;&lt;p style=&quot;margin:0px;margin-left:4px;&quot;&gt;+ avaliarAgiota(idConta): void&lt;br&gt;&lt;/p&gt;" style="verticalAlign=top;align=left;overflow=fill;html=1;whiteSpace=wrap;" parent="1" vertex="1">
          <mxGeometry x="-90" y="80" width="230" height="180" as="geometry" />
        </mxCell>
        <mxCell id="ElCCOD3k_z0msa3gvorV-36" value="&lt;p style=&quot;margin:0px;margin-top:4px;text-align:center;&quot;&gt;&lt;b&gt;BancoDeDados&lt;/b&gt;&lt;/p&gt;&lt;hr size=&quot;1&quot; style=&quot;border-style:solid;&quot;&gt;&lt;p style=&quot;margin:0px;margin-left:4px;&quot;&gt;- listaContas &amp;lt;list&amp;gt;: Conta&lt;br&gt;&lt;/p&gt;&lt;hr size=&quot;1&quot; style=&quot;border-style:solid;&quot;&gt;&lt;p style=&quot;margin:0px;margin-left:4px;&quot;&gt;+ salvarContas(List&amp;lt;Conta&amp;gt;): void&lt;/p&gt;&lt;p style=&quot;margin:0px;margin-left:4px;&quot;&gt;+ carregarContas(): List&amp;lt;Conta&amp;gt;&lt;/p&gt;&lt;p style=&quot;margin:0px;margin-left:4px;&quot;&gt;+ listarClientes(): String&lt;/p&gt;&lt;p style=&quot;margin:0px;margin-left:4px;&quot;&gt;+ listarAgiotas(): String&lt;br&gt;&lt;/p&gt;&lt;p style=&quot;margin:0px;margin-left:4px;&quot;&gt;&lt;/p&gt;" style="verticalAlign=top;align=left;overflow=fill;html=1;whiteSpace=wrap;" parent="1" vertex="1">
          <mxGeometry x="840" y="-80" width="200" height="130" as="geometry" />
        </mxCell>
        <mxCell id="ElCCOD3k_z0msa3gvorV-37" value="&lt;p style=&quot;margin:0px;margin-top:4px;text-align:center;&quot;&gt;&lt;i&gt;&amp;lt;&amp;lt;control&amp;gt;&amp;gt;&lt;/i&gt;&lt;br&gt;&lt;b&gt;ControladorAgiota&lt;/b&gt;&lt;/p&gt;&lt;hr size=&quot;1&quot; style=&quot;border-style:solid;&quot;&gt;&lt;p style=&quot;margin:0px;margin-left:4px;&quot;&gt;+ editarPerfil(Agiota): void&lt;/p&gt;&lt;p style=&quot;margin:0px;margin-left:4px;&quot;&gt;+ verExtrato(Agiota): void&lt;/p&gt;&lt;p style=&quot;margin:0px;margin-left:4px;&quot;&gt;+ visualizarHistoricoEmprestimos(Agiota): void&lt;/p&gt;&lt;p style=&quot;margin:0px;margin-left:4px;&quot;&gt;+ listarClientes(): String&lt;br&gt;&lt;/p&gt;&lt;p style=&quot;margin:0px;margin-left:4px;&quot;&gt;+ avaliarCliente(idConta): void&lt;br&gt;&lt;/p&gt;" style="verticalAlign=top;align=left;overflow=fill;html=1;whiteSpace=wrap;" parent="1" vertex="1">
          <mxGeometry x="825" y="270" width="230" height="180" as="geometry" />
        </mxCell>
        <mxCell id="pmDJ4Jt38gVGMVGfzdzW-3" value="Extends" style="endArrow=block;endSize=16;endFill=0;html=1;rounded=0;" edge="1" parent="1" source="ElCCOD3k_z0msa3gvorV-21" target="ElCCOD3k_z0msa3gvorV-9">
          <mxGeometry width="160" relative="1" as="geometry">
            <mxPoint x="270" y="160" as="sourcePoint" />
            <mxPoint x="430" y="160" as="targetPoint" />
          </mxGeometry>
        </mxCell>
        <mxCell id="pmDJ4Jt38gVGMVGfzdzW-4" value="Extends" style="endArrow=block;endSize=16;endFill=0;html=1;rounded=0;" edge="1" parent="1" source="ElCCOD3k_z0msa3gvorV-25" target="ElCCOD3k_z0msa3gvorV-9">
          <mxGeometry width="160" relative="1" as="geometry">
            <mxPoint x="270" y="160" as="sourcePoint" />
            <mxPoint x="430" y="160" as="targetPoint" />
          </mxGeometry>
        </mxCell>
        <mxCell id="pmDJ4Jt38gVGMVGfzdzW-5" value="Implement" style="html=1;verticalAlign=bottom;endArrow=block;curved=0;rounded=0;" edge="1" parent="1" source="ElCCOD3k_z0msa3gvorV-25" target="ElCCOD3k_z0msa3gvorV-24">
          <mxGeometry width="80" relative="1" as="geometry">
            <mxPoint x="310" y="160" as="sourcePoint" />
            <mxPoint x="390" y="160" as="targetPoint" />
          </mxGeometry>
        </mxCell>
        <mxCell id="pmDJ4Jt38gVGMVGfzdzW-6" value="Implement" style="html=1;verticalAlign=bottom;endArrow=block;curved=0;rounded=0;" edge="1" parent="1" source="ElCCOD3k_z0msa3gvorV-26" target="ElCCOD3k_z0msa3gvorV-24">
          <mxGeometry width="80" relative="1" as="geometry">
            <mxPoint x="310" y="160" as="sourcePoint" />
            <mxPoint x="390" y="160" as="targetPoint" />
          </mxGeometry>
        </mxCell>
        <mxCell id="pmDJ4Jt38gVGMVGfzdzW-10" value="" style="endArrow=open;html=1;endSize=12;startArrow=diamondThin;startSize=14;startFill=0;edgeStyle=orthogonalEdgeStyle;rounded=0;" edge="1" parent="1" source="ElCCOD3k_z0msa3gvorV-27" target="ElCCOD3k_z0msa3gvorV-28">
          <mxGeometry relative="1" as="geometry">
            <mxPoint x="310" y="-20" as="sourcePoint" />
            <mxPoint x="470" y="-20" as="targetPoint" />
            <Array as="points">
              <mxPoint x="530" y="-110" />
              <mxPoint x="530" y="-110" />
            </Array>
          </mxGeometry>
        </mxCell>
        <mxCell id="pmDJ4Jt38gVGMVGfzdzW-11" value="1..*" style="edgeLabel;resizable=0;html=1;align=left;verticalAlign=top;" connectable="0" vertex="1" parent="pmDJ4Jt38gVGMVGfzdzW-10">
          <mxGeometry x="-1" relative="1" as="geometry">
            <mxPoint x="-40" y="-20" as="offset" />
          </mxGeometry>
        </mxCell>
        <mxCell id="pmDJ4Jt38gVGMVGfzdzW-12" value="1" style="edgeLabel;resizable=0;html=1;align=right;verticalAlign=top;" connectable="0" vertex="1" parent="pmDJ4Jt38gVGMVGfzdzW-10">
          <mxGeometry x="1" relative="1" as="geometry">
            <mxPoint x="30" y="-20" as="offset" />
          </mxGeometry>
        </mxCell>
        <mxCell id="pmDJ4Jt38gVGMVGfzdzW-13" value="" style="endArrow=open;html=1;endSize=12;startArrow=diamondThin;startSize=14;startFill=0;edgeStyle=orthogonalEdgeStyle;rounded=0;" edge="1" parent="1" source="ElCCOD3k_z0msa3gvorV-28" target="ElCCOD3k_z0msa3gvorV-25">
          <mxGeometry relative="1" as="geometry">
            <mxPoint x="310" y="10" as="sourcePoint" />
            <mxPoint x="470" y="10" as="targetPoint" />
          </mxGeometry>
        </mxCell>
        <mxCell id="pmDJ4Jt38gVGMVGfzdzW-14" value="0..*" style="edgeLabel;resizable=0;html=1;align=left;verticalAlign=top;" connectable="0" vertex="1" parent="pmDJ4Jt38gVGMVGfzdzW-13">
          <mxGeometry x="-1" relative="1" as="geometry">
            <mxPoint x="10" as="offset" />
          </mxGeometry>
        </mxCell>
        <mxCell id="pmDJ4Jt38gVGMVGfzdzW-15" value="1" style="edgeLabel;resizable=0;html=1;align=right;verticalAlign=top;" connectable="0" vertex="1" parent="pmDJ4Jt38gVGMVGfzdzW-13">
          <mxGeometry x="1" relative="1" as="geometry">
            <mxPoint x="-10" y="-30" as="offset" />
          </mxGeometry>
        </mxCell>
        <mxCell id="pmDJ4Jt38gVGMVGfzdzW-16" value="" style="endArrow=open;html=1;endSize=12;startArrow=diamondThin;startSize=14;startFill=0;edgeStyle=orthogonalEdgeStyle;rounded=0;" edge="1" parent="1" source="ElCCOD3k_z0msa3gvorV-29" target="ElCCOD3k_z0msa3gvorV-25">
          <mxGeometry relative="1" as="geometry">
            <mxPoint x="310" y="280" as="sourcePoint" />
            <mxPoint x="470" y="280" as="targetPoint" />
          </mxGeometry>
        </mxCell>
        <mxCell id="pmDJ4Jt38gVGMVGfzdzW-17" value="0..*" style="edgeLabel;resizable=0;html=1;align=left;verticalAlign=top;" connectable="0" vertex="1" parent="pmDJ4Jt38gVGMVGfzdzW-16">
          <mxGeometry x="-1" relative="1" as="geometry">
            <mxPoint x="10" y="-30" as="offset" />
          </mxGeometry>
        </mxCell>
        <mxCell id="pmDJ4Jt38gVGMVGfzdzW-18" value="1" style="edgeLabel;resizable=0;html=1;align=right;verticalAlign=top;" connectable="0" vertex="1" parent="pmDJ4Jt38gVGMVGfzdzW-16">
          <mxGeometry x="1" relative="1" as="geometry">
            <mxPoint x="-10" y="10" as="offset" />
          </mxGeometry>
        </mxCell>
        <mxCell id="pmDJ4Jt38gVGMVGfzdzW-19" value="" style="endArrow=open;html=1;endSize=12;startArrow=diamondThin;startSize=14;startFill=0;edgeStyle=orthogonalEdgeStyle;rounded=0;" edge="1" parent="1" source="ElCCOD3k_z0msa3gvorV-29" target="ElCCOD3k_z0msa3gvorV-26">
          <mxGeometry relative="1" as="geometry">
            <mxPoint x="490" y="390" as="sourcePoint" />
            <mxPoint x="490" y="300" as="targetPoint" />
          </mxGeometry>
        </mxCell>
        <mxCell id="pmDJ4Jt38gVGMVGfzdzW-20" value="0..*" style="edgeLabel;resizable=0;html=1;align=left;verticalAlign=top;" connectable="0" vertex="1" parent="pmDJ4Jt38gVGMVGfzdzW-19">
          <mxGeometry x="-1" relative="1" as="geometry">
            <mxPoint x="10" y="-30" as="offset" />
          </mxGeometry>
        </mxCell>
        <mxCell id="pmDJ4Jt38gVGMVGfzdzW-21" value="1" style="edgeLabel;resizable=0;html=1;align=right;verticalAlign=top;" connectable="0" vertex="1" parent="pmDJ4Jt38gVGMVGfzdzW-19">
          <mxGeometry x="1" relative="1" as="geometry">
            <mxPoint x="-10" y="10" as="offset" />
          </mxGeometry>
        </mxCell>
        <mxCell id="pmDJ4Jt38gVGMVGfzdzW-22" value="" style="endArrow=open;html=1;endSize=12;startArrow=diamondThin;startSize=14;startFill=0;edgeStyle=orthogonalEdgeStyle;rounded=0;" edge="1" parent="1" source="ElCCOD3k_z0msa3gvorV-36" target="ElCCOD3k_z0msa3gvorV-24">
          <mxGeometry relative="1" as="geometry">
            <mxPoint x="790" y="249.5" as="sourcePoint" />
            <mxPoint x="900" y="169.5" as="targetPoint" />
          </mxGeometry>
        </mxCell>
        <mxCell id="pmDJ4Jt38gVGMVGfzdzW-23" value="0..*" style="edgeLabel;resizable=0;html=1;align=left;verticalAlign=top;" connectable="0" vertex="1" parent="pmDJ4Jt38gVGMVGfzdzW-22">
          <mxGeometry x="-1" relative="1" as="geometry">
            <mxPoint x="-30" y="-30" as="offset" />
          </mxGeometry>
        </mxCell>
        <mxCell id="pmDJ4Jt38gVGMVGfzdzW-24" value="1" style="edgeLabel;resizable=0;html=1;align=right;verticalAlign=top;" connectable="0" vertex="1" parent="pmDJ4Jt38gVGMVGfzdzW-22">
          <mxGeometry x="1" relative="1" as="geometry">
            <mxPoint x="30" as="offset" />
          </mxGeometry>
        </mxCell>
        <mxCell id="pmDJ4Jt38gVGMVGfzdzW-25" value="" style="endArrow=open;html=1;endSize=12;startArrow=diamondThin;startSize=14;startFill=0;edgeStyle=orthogonalEdgeStyle;rounded=0;" edge="1" parent="1" source="ElCCOD3k_z0msa3gvorV-31" target="ElCCOD3k_z0msa3gvorV-25">
          <mxGeometry relative="1" as="geometry">
            <mxPoint x="180" y="230" as="sourcePoint" />
            <mxPoint x="180" y="140" as="targetPoint" />
          </mxGeometry>
        </mxCell>
        <mxCell id="pmDJ4Jt38gVGMVGfzdzW-26" value="1" style="edgeLabel;resizable=0;html=1;align=left;verticalAlign=top;" connectable="0" vertex="1" parent="pmDJ4Jt38gVGMVGfzdzW-25">
          <mxGeometry x="-1" relative="1" as="geometry">
            <mxPoint x="10" y="-30" as="offset" />
          </mxGeometry>
        </mxCell>
        <mxCell id="pmDJ4Jt38gVGMVGfzdzW-27" value="1" style="edgeLabel;resizable=0;html=1;align=right;verticalAlign=top;" connectable="0" vertex="1" parent="pmDJ4Jt38gVGMVGfzdzW-25">
          <mxGeometry x="1" relative="1" as="geometry">
            <mxPoint x="-10" y="10" as="offset" />
          </mxGeometry>
        </mxCell>
        <mxCell id="pmDJ4Jt38gVGMVGfzdzW-28" value="" style="endArrow=open;html=1;endSize=12;startArrow=diamondThin;startSize=14;startFill=0;edgeStyle=orthogonalEdgeStyle;rounded=0;" edge="1" parent="1" source="ElCCOD3k_z0msa3gvorV-30" target="ElCCOD3k_z0msa3gvorV-24">
          <mxGeometry relative="1" as="geometry">
            <mxPoint x="760" y="160" as="sourcePoint" />
            <mxPoint x="860" y="160" as="targetPoint" />
          </mxGeometry>
        </mxCell>
        <mxCell id="pmDJ4Jt38gVGMVGfzdzW-29" value="1" style="edgeLabel;resizable=0;html=1;align=left;verticalAlign=top;" connectable="0" vertex="1" parent="pmDJ4Jt38gVGMVGfzdzW-28">
          <mxGeometry x="-1" relative="1" as="geometry">
            <mxPoint x="10" y="-30" as="offset" />
          </mxGeometry>
        </mxCell>
        <mxCell id="pmDJ4Jt38gVGMVGfzdzW-30" value="1" style="edgeLabel;resizable=0;html=1;align=right;verticalAlign=top;" connectable="0" vertex="1" parent="pmDJ4Jt38gVGMVGfzdzW-28">
          <mxGeometry x="1" relative="1" as="geometry">
            <mxPoint x="-10" y="10" as="offset" />
          </mxGeometry>
        </mxCell>
        <mxCell id="pmDJ4Jt38gVGMVGfzdzW-31" value="" style="endArrow=open;html=1;endSize=12;startArrow=diamondThin;startSize=14;startFill=0;edgeStyle=orthogonalEdgeStyle;rounded=0;" edge="1" parent="1" source="ElCCOD3k_z0msa3gvorV-37" target="ElCCOD3k_z0msa3gvorV-26">
          <mxGeometry relative="1" as="geometry">
            <mxPoint x="847" y="315" as="sourcePoint" />
            <mxPoint x="770" y="210" as="targetPoint" />
          </mxGeometry>
        </mxCell>
        <mxCell id="pmDJ4Jt38gVGMVGfzdzW-32" value="1" style="edgeLabel;resizable=0;html=1;align=left;verticalAlign=top;" connectable="0" vertex="1" parent="pmDJ4Jt38gVGMVGfzdzW-31">
          <mxGeometry x="-1" relative="1" as="geometry">
            <mxPoint x="10" y="-30" as="offset" />
          </mxGeometry>
        </mxCell>
        <mxCell id="pmDJ4Jt38gVGMVGfzdzW-33" value="1" style="edgeLabel;resizable=0;html=1;align=right;verticalAlign=top;" connectable="0" vertex="1" parent="pmDJ4Jt38gVGMVGfzdzW-31">
          <mxGeometry x="1" relative="1" as="geometry">
            <mxPoint x="-10" y="10" as="offset" />
          </mxGeometry>
        </mxCell>
        <mxCell id="pmDJ4Jt38gVGMVGfzdzW-34" value="Use" style="endArrow=open;endSize=12;dashed=1;html=1;rounded=0;" edge="1" parent="1" source="ElCCOD3k_z0msa3gvorV-26" target="ElCCOD3k_z0msa3gvorV-25">
          <mxGeometry width="160" relative="1" as="geometry">
            <mxPoint x="440" y="280" as="sourcePoint" />
            <mxPoint x="600" y="280" as="targetPoint" />
          </mxGeometry>
        </mxCell>
      </root>
    </mxGraphModel>
  </diagram>
</mxfile>
